<?xml version="1.0" encoding="iso-8859-1"?>
<!-- Uploaded to: SVG Repo, www.svgrepo.com, Generator: SVG Repo Mixer Tools -->
<svg height="800px" width="800px" version="1.1" id="Layer_1" xmlns="http://www.w3.org/2000/svg" xmlns:xlink="http://www.w3.org/1999/xlink" 
	 viewBox="0 0 511.984 511.984" xml:space="preserve">
<path style="fill:#FFCE54;" d="M223.992,373.316c-64.81,0-117.543-52.732-117.543-117.551s52.734-117.55,117.543-117.55
	c64.81,0,117.558,52.732,117.558,117.551S288.803,373.316,223.992,373.316z"/>
<path style="fill:#F6BB42;" d="M223.992,127.551c-70.81,0-128.214,57.405-128.214,128.215c0,70.817,57.404,128.222,128.214,128.222
	s128.214-57.404,128.214-128.222C352.207,184.955,294.803,127.551,223.992,127.551z M299.568,331.348
	c-20.186,20.188-47.029,31.296-75.576,31.296c-28.545,0-55.389-11.108-75.575-31.296c-20.187-20.187-31.312-47.029-31.312-75.583
	c0-28.546,11.125-55.389,31.312-75.576s47.03-31.304,75.575-31.304c28.546,0,55.39,11.117,75.576,31.304
	c20.188,20.187,31.297,47.029,31.297,75.576C330.865,284.319,319.757,311.162,299.568,331.348z"/>
<path style="fill:#CCD1D9;" d="M42.67,255.992h149.324c5.891,0,10.671-4.781,10.671-10.672s-4.781-10.664-10.671-10.664H42.67
	c-5.89,0-10.671,4.773-10.671,10.664S36.78,255.992,42.67,255.992z"/>
<path style="fill:#E6E9ED;" d="M234.664,298.647H85.326c-5.89,0-10.656,4.781-10.656,10.671c0,5.891,4.766,10.672,10.656,10.672
	h149.339c5.89,0,10.656-4.781,10.656-10.672C245.32,303.429,240.555,298.647,234.664,298.647z"/>
<path style="fill:#AAB2BC;" d="M202.665,362.644H42.67c-5.89,0-10.671,4.781-10.671,10.672s4.781,10.671,10.671,10.671h159.995
	c5.891,0,10.656-4.78,10.656-10.671S208.556,362.644,202.665,362.644z"/>
<g>
	<path style="fill:#F6BB42;" d="M223.992,405.315c-5.89,0-10.655,4.781-10.655,10.672l-0.016,85.325
		c0,5.891,4.781,10.672,10.671,10.672c5.891,0,10.672-4.781,10.672-10.672v-85.325C234.664,410.096,229.883,405.315,223.992,405.315
		z"/>
	<path style="fill:#F6BB42;" d="M223.992,106.661L223.992,106.661c5.891,0,10.672-4.773,10.672-10.672V10.664
		C234.664,4.773,229.883,0,223.992,0l0,0c-5.89,0-10.671,4.773-10.671,10.664v85.325
		C213.322,101.88,218.103,106.661,223.992,106.661z"/>
</g>
<g>
	<path style="fill:#FFCE54;" d="M329.585,361.583c-4.156,4.155-4.156,10.921,0,15.077l60.342,60.343
		c4.156,4.172,10.906,4.172,15.078,0s4.172-10.922,0-15.078l-60.328-60.342C340.504,357.411,333.74,357.411,329.585,361.583z"/>
	<path style="fill:#FFCE54;" d="M118.404,150.402c0-0.008,0,0,0-0.008c4.171-4.164,4.171-10.914,0-15.078L58.061,74.974
		c-4.156-4.164-10.922-4.164-15.078,0l0,0c-4.171,4.164-4.171,10.921,0,15.085l60.342,60.342
		C107.481,154.566,114.231,154.566,118.404,150.402z"/>
</g>
<path style="fill:#F6BB42;" d="M373.316,255.984c0,5.891,4.781,10.664,10.672,10.664l85.324,0.008
	c5.891,0,10.672-4.781,10.672-10.672s-4.781-10.664-10.656-10.664h-85.34C378.098,245.32,373.316,250.094,373.316,255.984z"/>
<path style="fill:#FFCE54;" d="M329.585,150.394c4.156,4.164,10.904,4.164,15.092,0l60.328-60.334
	c4.172-4.164,4.172-10.922,0-15.085c-4.172-4.164-10.922-4.164-15.078,0l-60.342,60.334
	C325.428,139.472,325.413,146.23,329.585,150.394z"/>
</svg>