<?xml version="1.0" encoding="UTF-8" standalone="no"?>
<svg
   data-name="Layer 1"
   width="1199.9968"
   height="574.54297"
   viewBox="0 0 1199.9968 574.54298"
   version="1.1"
   id="svg56"
   sodipodi:docname="undraw_freelancer_re_irh4_modified.svg"
   inkscape:export-filename="../Development/weewx-now/weewx_now_app/assets/images/add_station_top.png"
   inkscape:export-xdpi="96"
   inkscape:export-ydpi="96"
   inkscape:version="1.3.2 (091e20e, 2023-11-25)"
   xmlns:inkscape="http://www.inkscape.org/namespaces/inkscape"
   xmlns:sodipodi="http://sodipodi.sourceforge.net/DTD/sodipodi-0.dtd"
   xmlns:xlink="http://www.w3.org/1999/xlink"
   xmlns="http://www.w3.org/2000/svg"
   xmlns:svg="http://www.w3.org/2000/svg">
  <defs
     id="defs56">
    <linearGradient
       id="linearGradient65"
       inkscape:collect="always">
      <stop
         style="stop-color:#ffffff;stop-opacity:1;"
         offset="0"
         id="stop65" />
      <stop
         style="stop-color:#cccccc;stop-opacity:1;"
         offset="1"
         id="stop66" />
    </linearGradient>
    <inkscape:path-effect
       effect="bspline"
       id="path-effect65"
       is_visible="true"
       lpeversion="1.3"
       weight="33.333333"
       steps="2"
       helper_size="0"
       apply_no_weight="true"
       apply_with_weight="true"
       only_selected="false"
       uniform="false" />
    <rect
       x="878.74341"
       y="201.76098"
       width="109.65486"
       height="103.56289"
       id="rect64" />
    <inkscape:path-effect
       effect="bspline"
       id="path-effect62"
       is_visible="true"
       lpeversion="1.3"
       weight="33.333333"
       steps="2"
       helper_size="0"
       apply_no_weight="true"
       apply_with_weight="true"
       only_selected="false"
       uniform="false" />
    <rect
       x="385.8237"
       y="195.3966"
       width="48.477928"
       height="41.378443"
       id="rect61" />
    <clipPath
       clipPathUnits="userSpaceOnUse"
       id="clipPath2">
      <rect
         style="fill:#ff2aff;fill-opacity:1;stroke:none;stroke-width:3.43514"
         id="rect2"
         width="678.84796"
         height="392.94296"
         x="-110.71323"
         y="-46.488071"
         transform="rotate(-6.041288)" />
    </clipPath>
    <clipPath
       clipPathUnits="userSpaceOnUse"
       id="clipPath2-3">
      <rect
         style="fill:#ff2aff;fill-opacity:1;stroke:none;stroke-width:3.43514"
         id="rect2-6"
         width="678.84796"
         height="392.94296"
         x="-110.71323"
         y="-46.488071"
         transform="rotate(-6.041288)" />
    </clipPath>
    <radialGradient
       inkscape:collect="always"
       xlink:href="#linearGradient3274"
       id="radialGradient3276-0-3"
       cx="83.619835"
       cy="52.886486"
       fx="83.619835"
       fy="52.886486"
       r="13.349061"
       gradientTransform="matrix(4.3425374,0,0,0.10990223,-266.21876,49.028336)"
       gradientUnits="userSpaceOnUse" />
    <linearGradient
       inkscape:collect="always"
       id="linearGradient3274">
      <stop
         style="stop-color:#dcdcdc;stop-opacity:1;"
         offset="0"
         id="stop3270" />
      <stop
         style="stop-color:#dcdcdc;stop-opacity:0;"
         offset="1"
         id="stop3272" />
    </linearGradient>
    <radialGradient
       inkscape:collect="always"
       xlink:href="#linearGradient65"
       id="radialGradient66"
       cx="943.883"
       cy="365.3959"
       fx="943.883"
       fy="365.3959"
       r="3.8189158"
       gradientUnits="userSpaceOnUse" />
  </defs>
  <sodipodi:namedview
     id="namedview56"
     pagecolor="#ffffff"
     bordercolor="#000000"
     borderopacity="0.25"
     inkscape:showpageshadow="2"
     inkscape:pageopacity="0.0"
     inkscape:pagecheckerboard="0"
     inkscape:deskcolor="#d1d1d1"
     inkscape:zoom="0.61793893"
     inkscape:cx="512.18653"
     inkscape:cy="9.7096973"
     inkscape:window-width="2490"
     inkscape:window-height="1376"
     inkscape:window-x="2630"
     inkscape:window-y="27"
     inkscape:window-maximized="1"
     inkscape:current-layer="svg56" />
  <path
     d="M 2.22238,445.1283 A 247.14983,247.14983 0 0 1 249.02972,210.89532 c 7.5114,0 14.92865,0.39177 22.26936,1.04783 a 328.36748,328.36748 0 0 1 567.62824,-0.26837 c 6.19295,-0.46516 12.42755,-0.77946 18.73939,-0.77946 A 247.14983,247.14983 0 0 1 1104.474,445.1283"
     fill="#f2f2f2"
     id="path5"
     style="stroke-width:3.01195" />
  <path
     d="M 53.698245,426.11651 A 247.14983,247.14983 0 0 1 300.50558,191.88353 c 7.51137,0 14.92865,0.39176 22.26936,1.0478 a 328.36751,328.36751 0 0 1 567.62824,-0.26837 c 6.19295,-0.46513 12.42756,-0.77943 18.73939,-0.77943 a 247.14983,247.14983 0 0 1 246.80733,234.23298"
     fill="none"
     stroke="#3f3d56"
     stroke-miterlimit="10"
     id="path6"
     style="stroke-width:1;stroke-dasharray:none;stroke:#3f3d56;stroke-opacity:0.70454788;stroke-linecap:round" />
  <circle
     cx="931.91473"
     cy="67.238457"
     r="67.238457"
     fill="#2f2e41"
     id="circle37"
     style="stroke-width:2.4903" />
  <polygon
     points="172.69,366.588 219.556,358.003 220.612,376.067 173.405,378.826 "
     fill="#ffb8b8"
     id="polygon37"
     transform="matrix(2.4903134,0,0,2.4903134,436.19528,-455.64848)" />
  <path
     d="m 873.68216,434.98981 3.43597,58.7803 -37.00979,2.16338 -5.59936,-95.79009 v 0 a 37.072947,37.072947 0 0 1 39.17318,34.84641 z"
     fill="#2f2e41"
     id="path38"
     style="stroke-width:2.4903" />
  <path
     style="fill:#f6bb42;fill-opacity:1;stroke:#3f3d56;stroke-width:4;stroke-linecap:round;stroke-dasharray:none;stroke-opacity:1;paint-order:fill markers stroke;opacity:0.6"
     d="m 0.00910556,444.60828 c 399.96916444,0 799.93832444,0 1199.90749444,0"
     id="path62"
     transform="matrix(0.99620358,0,0,1,2.5380596,2)"
     inkscape:original-d="m 0.00910556,444.60828 c 399.96916444,0 799.93832444,0 1199.90749444,0"
     inkscape:path-effect="#path-effect62" />
  <polygon
     points="186.004,388.185 145.768,362.666 157.257,348.688 193.789,378.714 "
     fill="#ffb8b8"
     id="polygon38"
     transform="matrix(2.4903134,0,0,2.4903134,436.19528,-455.64848)" />
  <path
     d="m 878.81733,522.3625 37.38754,-45.48735 28.64015,23.54028 -60.92777,74.12754 v 0 a 37.072947,37.072947 0 0 1 -5.09992,-52.18047 z"
     fill="#2f2e41"
     id="path39"
     style="stroke-width:2.4903" />
  <path
     d="m 863.00172,377.78467 -13.24787,62.45419 a 9.9612535,9.9612535 0 0 0 9.5838,12.02694 l 130.23804,2.10063 a 9.9612535,9.9612535 0 0 0 9.97032,-11.69109 l -11.39202,-64.5548 A 9.9612535,9.9612535 0 0 0 978.3443,369.8904 H 872.74616 a 9.9612535,9.9612535 0 0 0 -9.74444,7.89427 z"
     fill="#2f2e41"
     id="path40"
     style="stroke-width:2.4903" />
  <path
     d="m 884.59878,399.77418 c 0,0 -127.00599,-79.69004 -151.90912,-37.35471 -12.45158,21.16766 -6.22579,41.71275 3.11289,56.96591 a 86.240875,86.240875 0 0 0 35.86674,32.10293 l 102.96823,50.3887 37.35469,-39.84501 -24.90311,-22.41283 z"
     fill="#2f2e41"
     id="path41"
     style="stroke-width:2.4903" />
  <path
     d="m 949.34692,387.32259 c 0,0 164.36068,-47.31594 131.98658,42.33533 -32.3741,89.65129 -154.39939,54.7869 -154.39939,54.7869 l -12.45158,-37.3547 42.33534,-29.88376 z"
     fill="#2f2e41"
     id="path42"
     style="stroke-width:2.4903" />
  <circle
     cx="932.75781"
     cy="82.59211"
     r="61.164658"
     fill="#ffb8b8"
     id="circle42"
     style="stroke-width:2.4903" />
  <path
     d="m 935.96269,397.20605 a 328.70608,328.70608 0 0 1 -75.34961,-9.9272 l -0.7284,-0.19944 -34.13114,-157.00164 a 57.836782,57.836782 0 0 1 37.18749,-67.09739 200.36984,200.36984 0 0 1 127.75198,-2.55112 h 6e-4 a 58.446559,58.446559 0 0 1 38.93609,69.14268 l -38.12263,157.37611 -0.53688,0.25536 c -15.8429,7.50497 -35.65422,10.00261 -55.00758,10.00261 z"
     fill="#cccccc"
     id="path43"
     style="stroke-width:2.4903" />
  <path
     d="m 902.84189,389.09594 a 25.041919,25.041919 0 0 1 37.73676,-7.10048 l 75.90805,-46.44742 -1.5662,46.21783 -71.84341,37.02156 a 25.177741,25.177741 0 0 1 -40.2352,-29.69149 z"
     fill="#ffb8b8"
     id="path44"
     style="stroke-width:2.4903" />
  <path
     d="m 945.97605,419.60652 a 11.289911,11.289911 0 0 1 -3.20292,-0.62364 11.088444,11.088444 0 0 1 -7.04367,-7.34875 l -7.03584,-23.33375 a 11.136682,11.136682 0 0 1 3.80637,-12.04463 l 94.01971,-50.66062 -28.57883,-162.52884 0.92736,-0.17856 c 0.37716,-0.0744 37.71017,-6.76566 50.97197,34.30614 9.2868,28.76526 45.6591,92.06287 40.9604,133.47564 a 37.067344,37.067344 0 0 1 -32.2399,32.72413 L 952.86026,417.5965 a 11.096837,11.096837 0 0 1 -6.88419,2.00989 z"
     fill="#cccccc"
     id="path45"
     style="stroke-width:2.4903" />
  <rect
     style="fill:#000000;fill-opacity:1;stroke-width:3.5598"
     id="rect57"
     width="67.108879"
     height="97.75383"
     x="891.04083"
     y="352.06537"
     rx="4.9000001"
     ry="4.9000001" />
  <path
     d="m 921.6329,373.41889 a 25.041969,25.041969 0 0 0 -38.11518,-4.65969 l -78.73712,-41.47118 4.53427,46.02152 74.07496,32.32614 a 25.177741,25.177741 0 0 0 38.24307,-32.21679 z"
     fill="#ffb8b8"
     id="path46"
     style="stroke-width:2.4903" />
  <path
     id="path47"
     style="fill:#cccccc;fill-opacity:1;stroke-width:2.4903"
     d="m 856.92156,162.4454 c -12.06389,0.19656 -32.79896,4.90262 -43.21704,32.6856 -10.61237,28.30298 -57.35578,94.82398 -54.58519,136.41023 a 37.067344,37.067344 0 0 0 30.68457,34.18523 l 91.88142,44.94485 v -51.87785 l -58.12,-29.3371 43.56633,-166.00657 -0.91752,-0.222 c -0.1164,-0.03 -3.80902,-0.8718 -9.29262,-0.7824 z" />
  <path
     d="m 870.98062,80.10265 c -3.62505,-9.194985 2.32262,-20.152663 11.14585,-24.606788 8.82322,-4.454124 19.47042,-3.607044 28.90814,-0.671485 7.93127,2.466979 15.36466,6.290232 23.10235,9.309911 a 51.702691,51.702691 0 0 0 24.28771,4.325454 c 8.2536,-0.932155 16.46821,-5.560326 19.84547,-13.148859 3.50074,-7.86588 1.11972,-17.464967 -4.27128,-24.177956 A 46.815949,46.815949 0 0 0 952.55301,17.34954 c -18.19797,-6.411137 -39.21819,-6.598558 -56.1126,2.720668 -16.8944,9.319225 -28.37577,29.162067 -24.88368,48.137756"
     fill="#2f2e41"
     id="path49"
     style="stroke-width:2.4903" />
  <circle
     style="fill:url(#radialGradient66);fill-opacity:1;stroke:none;stroke-width:1.81597"
     id="path58"
     cx="943.883"
     cy="365.3959"
     r="3.8189158" />
  <g
     id="g4"
     inkscape:export-filename="../weewx_now_app/assets/images/logo_full.png"
     inkscape:export-xdpi="96"
     inkscape:export-ydpi="96"
     transform="matrix(2.5364755,0,0,2.5364755,111.25591,206.65141)">
    <g
       id="g3"
       transform="matrix(1.7482155,0,0,1.7482155,-67.640107,-25.319389)">
      <g
         id="g2"
         inkscape:export-filename="../weewx_now_app/assets/images/logo_full.svg"
         inkscape:export-xdpi="96"
         inkscape:export-ydpi="96">
        <g
           id="g5"
           inkscape:export-filename="../weewx_now_app/assets/images/logo_full.png"
           inkscape:export-xdpi="96"
           inkscape:export-ydpi="96">
          <g
             id="g47959-1-5"
             transform="matrix(0.11492281,0.01216261,-0.01216261,0.11492281,106.07381,14.547942)"
             inkscape:export-filename="../weewx_now_app/assets/images/logo_full.png"
             inkscape:export-xdpi="96"
             inkscape:export-ydpi="96"
             clip-path="url(#clipPath2-3)">
            <path
               style="fill:#ffce54"
               d="m 223.992,373.316 c -64.81,0 -117.543,-52.732 -117.543,-117.551 0,-64.819 52.734,-117.55 117.543,-117.55 64.81,0 117.558,52.732 117.558,117.551 0,64.819 -52.747,117.55 -117.558,117.55 z"
               id="path47915-1-3" />
            <path
               style="fill:#f6bb42"
               d="m 223.992,127.551 c -70.81,0 -128.214,57.405 -128.214,128.215 0,70.817 57.404,128.222 128.214,128.222 70.81,0 128.214,-57.404 128.214,-128.222 10e-4,-70.811 -57.403,-128.215 -128.214,-128.215 z m 75.576,203.797 c -20.186,20.188 -47.029,31.296 -75.576,31.296 -28.545,0 -55.389,-11.108 -75.575,-31.296 -20.187,-20.187 -31.312,-47.029 -31.312,-75.583 0,-28.546 11.125,-55.389 31.312,-75.576 20.187,-20.187 47.03,-31.304 75.575,-31.304 28.546,0 55.39,11.117 75.576,31.304 20.188,20.187 31.297,47.029 31.297,75.576 0,28.554 -11.108,55.397 -31.297,75.583 z"
               id="path47917-5-5" />
            <g
               id="g47929-8-62">
	
	<path
   style="fill:#f6bb42"
   d="m 223.992,106.661 v 0 c 5.891,0 10.672,-4.773 10.672,-10.672 V 10.664 C 234.664,4.773 229.883,0 223.992,0 v 0 c -5.89,0 -10.671,4.773 -10.671,10.664 v 85.325 c 0.001,5.891 4.782,10.672 10.671,10.672 z"
   id="path47927-0-1" />

</g>
            <g
               id="g47935-3-2">
	
	<path
   style="fill:#ffce54"
   d="m 118.404,150.402 c 0,-0.008 0,0 0,-0.008 4.171,-4.164 4.171,-10.914 0,-15.078 L 58.061,74.974 c -4.156,-4.164 -10.922,-4.164 -15.078,0 v 0 c -4.171,4.164 -4.171,10.921 0,15.085 l 60.342,60.342 c 4.156,4.165 10.906,4.165 15.079,10e-4 z"
   id="path47933-4-0" />

</g>
            <path
               style="fill:#f6bb42"
               d="m 373.316,255.984 c 0,5.891 4.781,10.664 10.672,10.664 l 85.324,0.008 c 5.891,0 10.672,-4.781 10.672,-10.672 0,-5.891 -4.781,-10.664 -10.656,-10.664 h -85.34 c -5.89,0 -10.672,4.774 -10.672,10.664 z"
               id="path47937-4-9" />
            <path
               style="fill:#ffce54"
               d="m 329.585,150.394 c 4.156,4.164 10.904,4.164 15.092,0 L 405.005,90.06 c 4.172,-4.164 4.172,-10.922 0,-15.085 -4.172,-4.164 -10.922,-4.164 -15.078,0 l -60.342,60.334 c -4.157,4.163 -4.172,10.921 0,15.085 z"
               id="path47939-4-3" />
          </g>
          <ellipse
             style="display:inline;fill:url(#radialGradient3276-0-3);fill-opacity:1;fill-rule:nonzero;stroke-width:1.81877"
             id="path663-5-6"
             cx="96.903419"
             cy="54.840652"
             rx="57.968788"
             ry="1.4670918"
             inkscape:label="path663"
             inkscape:export-filename="../weewx_now_app/assets/images/logo_full.png"
             inkscape:export-xdpi="96"
             inkscape:export-ydpi="96" />
          <text
             xml:space="preserve"
             style="font-style:normal;font-variant:normal;font-weight:normal;font-stretch:normal;font-size:10.5105px;font-family:Umpush;-inkscape-font-specification:Umpush;text-align:justify;text-anchor:start;display:inline;fill:#66baae;fill-opacity:1;stroke-width:0.297937;stroke-dasharray:none"
             x="93.967773"
             y="46.973984"
             id="text545-0-0"><tspan
               sodipodi:role="line"
               style="text-align:center;text-anchor:middle;fill:#66baae;fill-opacity:1;stroke-width:0.297937;stroke-dasharray:none"
               x="93.967773"
               y="46.973984"
               id="tspan551-9-6"><tspan
                 id="tspan1252-6-2"
                 style="font-size:23.1232px;text-align:center;text-anchor:middle;fill:#66baae;fill-opacity:1;stroke-width:0.297937;stroke-dasharray:none"
                 dy="7.4484172"><tspan
                   style="stroke:#000000;stroke-width:0.297937;stroke-dasharray:none;stroke-opacity:1"
                   id="tspan6917-3-6">Wee</tspan><tspan
                   style="font-style:normal;font-variant:normal;font-weight:bold;font-stretch:normal;font-family:Umpush;-inkscape-font-specification:'Umpush Bold';fill:#000000;fill-opacity:1;stroke:#66baae;stroke-width:0.297937;stroke-dasharray:none;stroke-opacity:1"
                   id="tspan6915-8-1">WX</tspan></tspan></tspan></text>
          <text
             xml:space="preserve"
             style="font-style:normal;font-variant:normal;font-weight:normal;font-stretch:normal;font-size:13.9401px;font-family:Umpush;-inkscape-font-specification:Umpush;text-align:center;text-anchor:middle;fill:#66baae;fill-opacity:1;stroke:none;stroke-width:1.97854;stroke-dasharray:none"
             x="128.54568"
             y="65.251427"
             id="text1256-5-8"><tspan
               sodipodi:role="line"
               id="tspan1254-6-7"
               style="font-style:normal;font-variant:normal;font-weight:normal;font-stretch:normal;font-size:13.9401px;font-family:Umpush;-inkscape-font-specification:Umpush;fill:#66baae;fill-opacity:1;stroke:none;stroke-width:1.97854;stroke-dasharray:none;stroke-opacity:1"
               x="128.54568"
               y="65.251427">now</tspan></text>
          <rect
             style="fill:none;stroke-width:0.338916"
             id="rect5"
             width="7.7203789"
             height="23.79377"
             x="156.19763"
             y="38.385193" />
        </g>
      </g>
    </g>
  </g>
  <text
     xml:space="preserve"
     id="text64"
     style="fill:#cccc24;stroke-width:1;font-size:13.33333333px;-inkscape-font-specification:Umpush;font-family:Umpush;text-align:center;fill-opacity:1;stroke-dasharray:none;paint-order:fill markers stroke;stroke:none;stroke-opacity:0.70454788;white-space:pre;shape-inside:url(#rect64)" />
</svg>
