<?xml version="1.0" encoding="UTF-8" standalone="no"?>
<!-- Created with Inkscape (http://www.inkscape.org/) -->

<svg
   width="267.74936mm"
   height="223.2336mm"
   viewBox="0 0 267.74936 223.2336"
   version="1.1"
   id="svg5"
   xml:space="preserve"
   xmlns="http://www.w3.org/2000/svg"
   xmlns:svg="http://www.w3.org/2000/svg"><defs
     id="defs2"><linearGradient
       id="linearGradient28745"><stop
         style="stop-color:#00ff00;stop-opacity:1;"
         offset="0"
         id="stop28743" /></linearGradient><linearGradient
       id="linearGradient3248"><stop
         style="stop-color:#00ca80;stop-opacity:1;"
         offset="0"
         id="stop3246" /></linearGradient><clipPath
       clipPathUnits="userSpaceOnUse"
       id="clipPath2-9-3"><rect
         style="fill:#ff2aff;fill-opacity:1;stroke:none;stroke-width:3.43514"
         id="rect2-2-6"
         width="678.84796"
         height="392.94296"
         x="-110.71323"
         y="-46.488071"
         transform="rotate(-6.041288)" /></clipPath></defs><g
     id="layer1"
     transform="translate(-21.388274,-101.88939)"><g
       id="g6"
       transform="matrix(4.5505612,0,0,4.5505612,-606.53202,-83.131697)"><g
         id="g47959-1-5-7-5"
         transform="matrix(0.11492281,0.01216261,-0.01216261,0.11492281,144.77158,37.941581)"
         clip-path="url(#clipPath2-9-3)"><path
           style="fill:#ffce54"
           d="m 223.992,373.316 c -64.81,0 -117.543,-52.732 -117.543,-117.551 0,-64.819 52.734,-117.55 117.543,-117.55 64.81,0 117.558,52.732 117.558,117.551 0,64.819 -52.747,117.55 -117.558,117.55 z"
           id="path47915-1-3-3-3" /><path
           style="fill:#f6bb42"
           d="m 223.992,127.551 c -70.81,0 -128.214,57.405 -128.214,128.215 0,70.817 57.404,128.222 128.214,128.222 70.81,0 128.214,-57.404 128.214,-128.222 10e-4,-70.811 -57.403,-128.215 -128.214,-128.215 z m 75.576,203.797 c -20.186,20.188 -47.029,31.296 -75.576,31.296 -28.545,0 -55.389,-11.108 -75.575,-31.296 -20.187,-20.187 -31.312,-47.029 -31.312,-75.583 0,-28.546 11.125,-55.389 31.312,-75.576 20.187,-20.187 47.03,-31.304 75.575,-31.304 28.546,0 55.39,11.117 75.576,31.304 20.188,20.187 31.297,47.029 31.297,75.576 0,28.554 -11.108,55.397 -31.297,75.583 z"
           id="path47917-5-5-6-5" /><g
           id="g47929-8-62-1-6">
	
	<path
   style="fill:#f6bb42"
   d="m 223.992,106.661 v 0 c 5.891,0 10.672,-4.773 10.672,-10.672 V 10.664 C 234.664,4.773 229.883,0 223.992,0 v 0 c -5.89,0 -10.671,4.773 -10.671,10.664 v 85.325 c 0.001,5.891 4.782,10.672 10.671,10.672 z"
   id="path47927-0-1-2-2" />
</g><g
           id="g47935-3-2-9-9">
	
	<path
   style="fill:#ffce54"
   d="m 118.404,150.402 c 0,-0.008 0,0 0,-0.008 4.171,-4.164 4.171,-10.914 0,-15.078 L 58.061,74.974 c -4.156,-4.164 -10.922,-4.164 -15.078,0 v 0 c -4.171,4.164 -4.171,10.921 0,15.085 l 60.342,60.342 c 4.156,4.165 10.906,4.165 15.079,10e-4 z"
   id="path47933-4-0-3-1" />
</g><path
           style="fill:#f6bb42"
           d="m 373.316,255.984 c 0,5.891 4.781,10.664 10.672,10.664 l 85.324,0.008 c 5.891,0 10.672,-4.781 10.672,-10.672 0,-5.891 -4.781,-10.664 -10.656,-10.664 h -85.34 c -5.89,0 -10.672,4.774 -10.672,10.664 z"
           id="path47937-4-9-1-2" /><path
           style="fill:#ffce54"
           d="m 329.585,150.394 c 4.156,4.164 10.904,4.164 15.092,0 L 405.005,90.06 c 4.172,-4.164 4.172,-10.922 0,-15.085 -4.172,-4.164 -10.922,-4.164 -15.078,0 l -60.342,60.334 c -4.157,4.163 -4.172,10.921 0,15.085 z"
           id="path47939-4-3-9-7" /></g><text
         xml:space="preserve"
         style="font-style:normal;font-variant:normal;font-weight:normal;font-stretch:normal;font-size:10.5105px;font-family:Umpush;-inkscape-font-specification:Umpush;text-align:justify;text-anchor:start;display:inline;fill:#66baae;fill-opacity:1;stroke-width:0.297937;stroke-dasharray:none"
         x="156.47803"
         y="77.77594"
         id="text545-0-0-7-0"><tspan
           style="text-align:center;text-anchor:middle;fill:#66baae;fill-opacity:1;stroke-width:0.297937;stroke-dasharray:none"
           x="156.47803"
           y="77.77594"
           id="tspan551-9-6-8-9"><tspan
             id="tspan1252-6-2-4-3"
             style="font-size:23.1232px;text-align:center;text-anchor:middle;fill:#66baae;fill-opacity:1;stroke-width:0.297937;stroke-dasharray:none"><tspan
               style="font-style:normal;font-variant:normal;font-weight:bold;font-stretch:normal;font-family:Umpush;-inkscape-font-specification:'Umpush Bold';fill:#000000;fill-opacity:1;stroke:#66baae;stroke-width:0.297937;stroke-dasharray:none;stroke-opacity:1"
               id="tspan6915-8-1-0-6">WX</tspan></tspan></tspan></text><text
         xml:space="preserve"
         style="font-style:normal;font-variant:normal;font-weight:normal;font-stretch:normal;font-size:13.844px;font-family:Umpush;-inkscape-font-specification:Umpush;text-align:center;text-anchor:middle;fill:#66baae;fill-opacity:1;stroke:none;stroke-width:1.96489;stroke-dasharray:none"
         x="167.38446"
         y="89.640877"
         id="text1256-5-8-3-0"><tspan
           id="tspan1254-6-7-6-6"
           style="font-style:normal;font-variant:normal;font-weight:normal;font-stretch:normal;font-size:13.844px;font-family:Umpush;-inkscape-font-specification:Umpush;fill:#66baae;fill-opacity:1;stroke:none;stroke-width:1.96489;stroke-dasharray:none;stroke-opacity:1"
           x="167.38446"
           y="89.640877">now</tspan></text></g></g><style
     type="text/css"
     id="style13875">
	.st0{fill:#000000;}
</style><style
     type="text/css"
     id="style19017">
	.st0{fill:#000000;}
</style></svg>
